<svg width="167" height="167" viewBox="0 0 167 167" fill="none" xmlns="http://www.w3.org/2000/svg">
<path d="M19.1357 107.228L54.8668 145.742C55.4824 146.411 56.23 146.945 57.0624 147.31C57.8948 147.676 58.7938 147.864 59.7028 147.865H107.228V107.228H19.1357Z" stroke="url(#paint0_linear_10_119)" stroke-width="5" stroke-linecap="round" stroke-linejoin="round"/>
<path d="M59.7724 19.1354L21.258 54.8665C20.5892 55.4821 20.0553 56.2297 19.69 57.0621C19.3248 57.8945 19.136 58.7935 19.1357 59.7025V107.228H59.7724V19.1354Z" stroke="url(#paint1_linear_10_119)" stroke-width="5" stroke-linecap="round" stroke-linejoin="round"/>
<path d="M147.865 59.7721L112.134 21.2577C111.518 20.5889 110.771 20.055 109.938 19.6897C109.106 19.3245 108.207 19.1357 107.298 19.1354H59.7725V59.7721H147.865Z" stroke="url(#paint2_linear_10_119)" stroke-width="5" stroke-linecap="round" stroke-linejoin="round"/>
<path d="M107.228 147.865L145.742 112.134C146.411 111.518 146.945 110.77 147.31 109.938C147.675 109.106 147.864 108.207 147.864 107.298V59.7721H107.228V147.865Z" stroke="url(#paint3_linear_10_119)" stroke-width="5" stroke-linecap="round" stroke-linejoin="round"/>
<defs>
<linearGradient id="paint0_linear_10_119" x1="63.182" y1="107.228" x2="63.182" y2="147.865" gradientUnits="userSpaceOnUse">
<stop stop-color="white"/>
<stop offset="1" stop-color="white" stop-opacity="0"/>
</linearGradient>
<linearGradient id="paint1_linear_10_119" x1="39.4541" y1="19.1354" x2="39.4541" y2="107.228" gradientUnits="userSpaceOnUse">
<stop stop-color="white"/>
<stop offset="1" stop-color="white" stop-opacity="0"/>
</linearGradient>
<linearGradient id="paint2_linear_10_119" x1="103.819" y1="19.1354" x2="103.819" y2="59.7721" gradientUnits="userSpaceOnUse">
<stop stop-color="white"/>
<stop offset="1" stop-color="white" stop-opacity="0"/>
</linearGradient>
<linearGradient id="paint3_linear_10_119" x1="127.546" y1="59.7721" x2="127.546" y2="147.865" gradientUnits="userSpaceOnUse">
<stop stop-color="white"/>
<stop offset="1" stop-color="white" stop-opacity="0"/>
</linearGradient>
</defs>
</svg>
