<svg width="129" height="119" viewBox="0 0 129 119" fill="none" xmlns="http://www.w3.org/2000/svg">
<path d="M127.992 27.25C127.387 26.8469 126.581 26.6453 125.977 27.0484L84.8578 41.7625L56.0344 31.2812C57.6469 27.25 58.4531 23.6219 58.4531 20.5984C58.4531 15.1562 56.4375 10.3187 52.6078 6.48905C48.7781 2.65936 43.7391 0.643738 38.4984 0.643738C27.4125 0.643738 18.5437 9.51249 18.5437 20.5984C18.5437 24.4281 19.9547 29.0641 22.3734 34.7078L1.41094 41.7625C0.604687 42.1656 0 42.9719 0 43.7781V116.341C0 117.147 0.403125 117.752 1.00781 118.155C1.41094 118.356 1.81406 118.558 2.21719 118.558C2.41875 118.558 2.82188 118.558 3.02344 118.356L44.1422 103.844L84.0516 118.558C84.4547 118.759 85.0594 118.759 85.4625 118.558L127.388 103.642C128.194 103.239 128.798 102.433 128.798 101.627V29.064C129 28.2578 128.597 27.6531 127.992 27.25ZM38.4984 4.67499C42.7313 4.67499 46.5609 6.28749 49.3828 9.31093C52.4062 12.1328 54.0187 16.1641 54.0187 20.1953C54.0187 23.0172 53.0109 26.8469 50.9953 31.2812C47.3672 39.3437 41.3203 47.8094 38.4984 51.6391C38.0953 51.2359 37.8937 50.8328 37.4906 50.2281C34.8703 46.6 30.6375 40.5531 27.6141 34.3047C24.5906 28.4594 23.1797 23.6219 23.1797 19.9937C22.9781 11.7297 30.0328 4.67499 38.4984 4.67499ZM124.566 100.014L84.8578 114.123L44.9484 99.4094C44.7469 99.4094 44.3438 99.2078 44.1422 99.2078C43.9406 99.2078 43.5375 99.2078 43.3359 99.4094L4.43438 113.317V45.3906L24.5906 38.3359C24.5906 38.3359 24.5906 38.3359 24.5906 38.5375C24.7922 38.7391 24.7922 38.9406 24.9937 39.1422C25.1953 39.5453 25.3969 39.9484 25.5984 40.3516C25.8 40.5531 25.8 40.7547 26.0016 40.9562C26.2031 41.3594 26.4047 41.7625 26.6062 42.1656C26.8078 42.3672 26.8078 42.5687 27.0094 42.7703C27.2109 43.1734 27.4125 43.5766 27.6141 43.7781C27.8156 43.9797 27.8156 44.1812 28.0172 44.3828C28.2188 44.7859 28.4203 44.9875 28.6219 45.3906C28.8234 45.5922 28.8234 45.7937 29.025 45.9953C29.2266 46.3984 29.4281 46.6 29.6297 47.0031C29.8312 47.2047 29.8312 47.4062 30.0328 47.6078C30.2344 48.0109 30.4359 48.2125 30.6375 48.6156C30.8391 48.8172 30.8391 49.0187 31.0406 49.2203C31.2422 49.6234 31.4438 49.825 31.6453 50.2281C31.8469 50.4297 31.8469 50.6312 32.0484 50.6312C32.25 51.0344 32.4516 51.2359 32.6531 51.4375C32.6531 51.6391 32.8547 51.6391 32.8547 51.8406C33.0562 52.2437 33.2578 52.4453 33.4594 52.6469L33.6609 52.8484C33.8625 53.05 34.0641 53.4531 34.2656 53.6547L34.4672 53.8562C34.6688 54.0578 34.8703 54.4609 35.0719 54.6625C35.2734 54.8641 35.475 55.0656 35.6766 55.2672C36.0797 55.8719 36.4828 56.275 36.4828 56.4766C36.8859 57.0812 37.4906 57.2828 38.2969 57.2828C38.9016 57.2828 39.5062 56.8797 40.1109 56.4766C40.1109 56.4766 40.3125 56.275 40.7156 55.8719L40.9172 55.6703C41.1187 55.4687 41.1188 55.4687 41.3203 55.2672L41.5219 55.0656C41.7234 54.8641 41.7234 54.6625 41.925 54.4609C41.925 54.2594 42.1266 54.2594 42.1266 54.0578C42.3281 53.8562 42.5297 53.6547 42.5297 53.4531C42.7313 53.2516 42.7312 53.05 42.9328 52.8484C43.1344 52.6469 43.3359 52.4453 43.5375 52.0422C43.7391 51.8406 43.7391 51.6391 43.9406 51.4375C44.1422 51.2359 44.3438 51.0344 44.5453 50.6312C44.7469 50.4297 44.9484 50.2281 44.9484 50.0266C45.15 49.825 45.3516 49.4219 45.5531 49.2203C45.7547 49.0187 45.9562 48.6156 46.1578 48.4141C46.3594 48.2125 46.5609 47.8094 46.7625 47.6078C46.9641 47.4062 47.1656 47.0031 47.3672 46.8016C47.5687 46.3984 47.7703 46.1969 47.9719 45.7937C48.1734 45.5922 48.375 45.189 48.5766 44.9875C48.7781 44.5844 48.9797 44.3828 49.1812 43.9797C49.3828 43.5765 49.5844 43.375 49.7859 42.9719C49.9875 42.5687 50.1891 42.3672 50.3906 41.9641C50.5922 41.5609 50.7937 41.3594 50.9953 40.9562C51.1969 40.5531 51.3984 40.3516 51.6 39.9484C51.8016 39.5453 52.0031 39.3437 52.2047 38.9406C52.4062 38.5375 52.6078 38.3359 52.8094 37.9328C53.0109 37.5297 53.2125 37.3281 53.4141 36.925C53.6156 36.5219 53.8172 36.1187 54.0187 35.9172C54.2203 35.514 54.4219 35.3125 54.4219 34.9094C54.4219 34.9094 54.4219 34.9094 54.4219 34.7078L84.2531 45.5922C84.6562 45.7937 85.2609 45.7937 85.6641 45.5922L124.566 31.6844V100.014Z" fill="url(#paint0_linear_10_154)"/>
<path d="M105.82 80.4625C106.223 80.6641 106.828 80.6641 107.231 80.6641C108.441 80.6641 109.65 80.2609 110.658 79.6563C112.069 78.6484 113.077 77.2375 113.48 75.625C113.883 74.0125 113.48 72.1984 112.673 70.7875C111.666 69.3766 110.255 68.3688 108.642 67.9656C105.216 67.1594 101.587 69.3766 100.781 72.8031C100.378 74.4156 100.781 76.2297 101.587 77.6406C102.797 79.0516 104.208 80.0594 105.82 80.4625ZM105.216 73.6094C105.417 72.4 106.627 71.7953 107.634 71.9969C108.239 72.1984 108.642 72.4 108.844 73.0047C109.045 73.4078 109.247 74.0125 109.045 74.6172C108.844 75.2219 108.642 75.625 108.037 75.8266C107.634 76.0281 107.03 76.2297 106.425 76.0281C105.82 75.8266 105.417 75.625 105.216 75.0203C105.216 74.6172 105.216 74.2141 105.216 73.6094Z" fill="url(#paint1_linear_10_154)"/>
<path d="M22.1721 73.8109L20.7611 74.6171L19.9549 73.2062C19.3502 72.1984 17.9393 71.7953 16.9314 72.6015C15.9236 73.2062 15.5205 74.6171 16.3268 75.6249L17.133 77.0359L15.7221 77.8421C14.7143 78.4468 14.3111 79.8578 15.1174 80.8656C15.3189 81.6718 16.1252 81.8734 16.7299 81.8734C17.133 81.8734 17.5361 81.6718 17.9393 81.4703L19.3502 80.664L20.1564 82.0749C20.5596 82.6796 21.3658 83.0828 21.9705 83.0828C22.3736 83.0828 22.7768 82.8812 23.1799 82.6796C24.1877 82.0749 24.5908 80.664 23.7846 79.6562L22.9783 78.2453L24.3893 77.439C25.3971 76.8343 25.8002 75.4234 24.9939 74.4156C24.5908 73.4078 23.1799 73.2062 22.1721 73.8109Z" fill="url(#paint2_linear_10_154)"/>
<path d="M42.9328 79.8578C40.3125 79.8578 36.8859 79.4546 34.6688 78.85C33.4594 78.6484 32.25 79.4547 32.0484 80.664C31.8469 81.8734 32.6531 83.0828 33.8625 83.2843C36.0797 83.6875 39.7078 84.2921 42.9328 84.2921C44.1422 84.2921 45.15 83.2843 45.15 82.075C45.15 80.8656 44.1422 79.8578 42.9328 79.8578Z" fill="url(#paint3_linear_10_154)"/>
<path d="M59.4605 72.1984C58.0496 74.214 56.4371 75.8265 54.4215 77.0359C53.8168 77.439 53.0105 77.8421 52.2043 78.2453C50.9949 78.6484 50.5918 80.0593 50.9949 81.2687C51.398 82.075 52.2043 82.6796 53.0105 82.6796C53.2121 82.6796 53.6152 82.6796 53.8168 82.4781C54.8246 82.075 55.6309 81.6718 56.4371 81.0671C58.8559 79.4546 60.8715 77.6406 62.6855 75.2218C63.4918 74.214 63.2902 72.8031 62.2824 72.1984C61.6777 70.989 60.2668 71.1906 59.4605 72.1984Z" fill="url(#paint4_linear_10_154)"/>
<path d="M75.5863 57.6859C73.3691 57.6859 72.1597 58.2906 70.9504 58.6937C68.1285 59.9031 65.7097 62.5234 65.1051 63.3297C64.2988 64.3375 64.5004 65.7484 65.3066 66.5547C65.7097 66.9578 66.3144 67.1593 66.7176 67.1593C67.3222 67.1593 67.9269 66.9578 68.3301 66.3531C69.3379 65.1437 70.9504 63.7328 72.5629 62.9265C73.7722 62.5234 74.1754 62.3218 75.5863 62.1203C76.7957 62.1203 77.8035 61.1125 77.8035 59.9031C77.8035 58.6937 76.7957 57.6859 75.5863 57.6859Z" fill="url(#paint5_linear_10_154)"/>
<path d="M83.8504 61.1125C83.4473 62.3219 83.8504 63.5312 85.0598 64.1359C87.277 65.1437 90.502 66.7562 92.9207 68.5703C93.3238 68.7719 93.727 68.9734 94.1301 68.9734C94.9363 68.9734 95.541 68.5703 95.9441 67.9656C96.5488 66.9578 96.3473 65.5469 95.3395 64.9422C92.5176 63.1281 89.2926 61.314 86.6723 60.3062C85.6645 59.5 84.4551 60.1047 83.8504 61.1125Z" fill="url(#paint6_linear_10_154)"/>
<path d="M38.4986 25.6375C42.3283 25.6375 45.3518 22.614 45.3518 18.7843C45.3518 14.9547 42.3283 11.9312 38.4986 11.9312C34.6689 11.9312 31.6455 14.9547 31.6455 18.7843C31.6455 22.614 34.8705 25.6375 38.4986 25.6375ZM38.4986 16.3656C39.708 16.3656 40.9174 17.3734 40.9174 18.7843C40.9174 19.9937 39.9096 21.2031 38.4986 21.2031C37.2893 21.2031 36.0799 20.1953 36.0799 18.7843C36.2814 17.575 37.2893 16.3656 38.4986 16.3656Z" fill="url(#paint7_linear_10_154)"/>
<defs>
<linearGradient id="paint0_linear_10_154" x1="64.4254" y1="0.643738" x2="64.4254" y2="118.709" gradientUnits="userSpaceOnUse">
<stop stop-color="white"/>
<stop offset="1" stop-color="white" stop-opacity="0"/>
</linearGradient>
<linearGradient id="paint1_linear_10_154" x1="107.13" y1="67.7998" x2="107.13" y2="80.6641" gradientUnits="userSpaceOnUse">
<stop stop-color="white"/>
<stop offset="1" stop-color="white" stop-opacity="0"/>
</linearGradient>
<linearGradient id="paint2_linear_10_154" x1="20.0557" y1="72.1726" x2="20.0557" y2="83.0828" gradientUnits="userSpaceOnUse">
<stop stop-color="white"/>
<stop offset="1" stop-color="white" stop-opacity="0"/>
</linearGradient>
<linearGradient id="paint3_linear_10_154" x1="38.5838" y1="78.8191" x2="38.5838" y2="84.2921" gradientUnits="userSpaceOnUse">
<stop stop-color="white"/>
<stop offset="1" stop-color="white" stop-opacity="0"/>
</linearGradient>
<linearGradient id="paint4_linear_10_154" x1="57.0134" y1="71.3652" x2="57.0134" y2="82.6796" gradientUnits="userSpaceOnUse">
<stop stop-color="white"/>
<stop offset="1" stop-color="white" stop-opacity="0"/>
</linearGradient>
<linearGradient id="paint5_linear_10_154" x1="71.1976" y1="57.6859" x2="71.1976" y2="67.1593" gradientUnits="userSpaceOnUse">
<stop stop-color="white"/>
<stop offset="1" stop-color="white" stop-opacity="0"/>
</linearGradient>
<linearGradient id="paint6_linear_10_154" x1="89.9917" y1="59.9326" x2="89.9917" y2="68.9734" gradientUnits="userSpaceOnUse">
<stop stop-color="white"/>
<stop offset="1" stop-color="white" stop-opacity="0"/>
</linearGradient>
<linearGradient id="paint7_linear_10_154" x1="38.4986" y1="11.9312" x2="38.4986" y2="25.6375" gradientUnits="userSpaceOnUse">
<stop stop-color="white"/>
<stop offset="1" stop-color="white" stop-opacity="0"/>
</linearGradient>
</defs>
</svg>
